<svg width="174" height="174" viewBox="0 0 174 174" fill="none" xmlns="http://www.w3.org/2000/svg">
<path d="M127.09 59.3435L125.917 57.2517L139.527 55.1796L140.54 56.9858L131.682 67.5331L130.509 65.4413L132.582 63.1123L130.158 58.7898L127.09 59.3435ZM132.075 58.4453L133.871 61.6486L137.602 57.4461L132.075 58.4453Z" fill="#1976D2"/>
<path d="M128.896 71.9569L128.269 69.8537L140.973 66.0652L141.552 68.0072L140.636 68.3728C141.078 68.5549 141.456 68.8208 141.77 69.1705C142.083 69.5203 142.319 69.9609 142.478 70.4923C142.709 71.2669 142.708 71.978 142.477 72.6258C142.245 73.2736 141.819 73.8377 141.199 74.3181C140.581 74.8042 139.808 75.1855 138.881 75.462L138.703 75.5151C137.809 75.7815 136.968 75.8816 136.179 75.8153C135.397 75.753 134.723 75.5168 134.157 75.1068C133.594 74.7024 133.198 74.1186 132.97 73.3553C132.815 72.8352 132.766 72.3511 132.823 71.9031C132.881 71.4551 133.027 71.0388 133.264 70.6544L128.896 71.9569ZM138.253 73.3589C138.802 73.1953 139.276 72.9771 139.674 72.7043C140.081 72.4354 140.368 72.1095 140.537 71.7267C140.713 71.3478 140.729 70.9152 140.584 70.429C140.451 69.9824 140.247 69.6399 139.973 69.4016C139.699 69.1632 139.376 69.0101 139.005 68.9423L135.011 70.1334C134.743 70.3918 134.553 70.6947 134.441 71.042C134.331 71.395 134.345 71.8033 134.483 72.2669C134.628 72.7531 134.881 73.1056 135.242 73.3243C135.603 73.543 136.029 73.6528 136.522 73.6536C137.015 73.6544 137.533 73.5738 138.075 73.412L138.253 73.3589Z" fill="#1976D2"/>
<path d="M130.854 81.1684L130.665 78.9819L143.872 77.8395L144.047 79.8585L143.076 80.0313C143.472 80.299 143.788 80.6358 144.025 81.0417C144.261 81.4477 144.403 81.9269 144.451 82.4794C144.521 83.2846 144.377 83.981 144.019 84.5686C143.661 85.1562 143.13 85.6226 142.426 85.9678C141.722 86.3188 140.888 86.536 139.924 86.6194L139.739 86.6354C138.81 86.7157 137.966 86.6437 137.206 86.4192C136.453 86.2001 135.841 85.8326 135.37 85.3167C134.899 84.8067 134.63 84.155 134.561 83.3615C134.514 82.8207 134.564 82.3367 134.711 81.9095C134.858 81.4823 135.085 81.1044 135.395 80.7756L130.854 81.1684ZM139.735 84.4329C140.305 84.3836 140.813 84.2656 141.259 84.079C141.711 83.8978 142.058 83.6368 142.301 83.296C142.55 82.9606 142.653 82.5401 142.61 82.0347C142.569 81.5703 142.439 81.1937 142.219 80.9048C141.998 80.616 141.713 80.4008 141.363 80.2593L137.211 80.6185C136.896 80.8175 136.649 81.0757 136.469 81.3933C136.29 81.7167 136.221 82.1194 136.263 82.6014C136.307 83.1069 136.483 83.5032 136.792 83.7903C137.101 84.0774 137.497 84.2711 137.98 84.3715C138.462 84.4719 138.985 84.4977 139.55 84.4489L139.735 84.4329Z" fill="#1976D2"/>
<path d="M134.548 91.1114L134.747 88.9257L144.283 89.793L144.094 91.8729L142.986 91.8344C143.358 92.1111 143.642 92.4391 143.839 92.8183C144.035 93.2035 144.111 93.6398 144.066 94.1275C144.055 94.2509 144.031 94.3879 143.993 94.5385C143.956 94.6891 143.919 94.8013 143.883 94.875L141.813 94.669C141.843 94.5355 141.871 94.3929 141.897 94.2412C141.928 94.0959 141.95 93.9498 141.963 93.8029C142.01 93.2859 141.949 92.8538 141.779 92.5066C141.609 92.1594 141.349 91.8899 140.999 91.6981L134.548 91.1114Z" fill="#1976D2"/>
<path d="M138.678 97.2141C139.576 97.4646 140.33 97.8587 140.939 98.3963C141.555 98.9354 141.978 99.5803 142.21 100.331C142.439 101.087 142.429 101.914 142.179 102.812C141.925 103.721 141.504 104.44 140.916 104.968C140.327 105.496 139.631 105.828 138.827 105.965C138.028 106.11 137.179 106.057 136.281 105.806L136.102 105.756C135.21 105.507 134.456 105.113 133.841 104.574C133.23 104.042 132.809 103.398 132.579 102.642C132.348 101.891 132.358 101.064 132.61 100.16C132.862 99.2569 133.282 98.5412 133.871 98.0132C134.459 97.4853 135.153 97.1491 135.953 97.0048C136.758 96.8621 137.607 96.9152 138.499 97.1641L138.678 97.2141ZM137.91 99.278C137.364 99.1258 136.843 99.0602 136.348 99.081C135.856 99.1092 135.428 99.2472 135.065 99.495C134.702 99.7428 134.449 100.122 134.306 100.634C134.165 101.14 134.187 101.59 134.371 101.984C134.553 102.384 134.848 102.72 135.256 102.993C135.668 103.274 136.146 103.49 136.692 103.642L136.871 103.692C137.405 103.841 137.921 103.903 138.418 103.876C138.914 103.855 139.346 103.721 139.715 103.475C140.084 103.229 140.34 102.85 140.482 102.339C140.624 101.833 140.6 101.379 140.412 100.978C140.222 100.582 139.922 100.244 139.51 99.9635C139.096 99.6889 138.623 99.477 138.089 99.328L137.91 99.278Z" fill="#1976D2"/>
<path d="M136.64 115.622L135.608 117.648L128.579 110.352L129.467 108.61L139.513 109.984L138.476 112.018L131.481 110.738L136.64 115.622Z" fill="#1976D2"/>
<path d="M123.316 117.769C123.903 117.022 124.569 116.503 125.316 116.211C126.067 115.924 126.831 115.849 127.608 115.987C128.39 116.128 129.122 116.467 129.804 117.003L130.089 117.227C130.873 117.843 131.438 118.527 131.785 119.279C132.136 120.036 132.27 120.797 132.185 121.563C132.097 122.334 131.796 123.047 131.282 123.701C130.714 124.425 130.084 124.902 129.393 125.132C128.707 125.365 127.992 125.382 127.25 125.181C126.512 124.984 125.779 124.599 125.05 124.027L124.306 123.442L128.166 118.529C127.559 118.127 126.93 117.952 126.281 118.005C125.637 118.062 125.085 118.382 124.626 118.967C124.309 119.37 124.107 119.789 124.02 120.224C123.934 120.659 123.948 121.109 124.063 121.574L122.447 121.768C122.28 121.246 122.236 120.634 122.315 119.931C122.399 119.232 122.733 118.511 123.316 117.769ZM129.903 122.606C130.264 122.147 130.391 121.65 130.285 121.117C130.179 120.584 129.879 120.059 129.384 119.542L126.891 122.716L127.023 122.819C127.323 123.04 127.642 123.197 127.981 123.291C128.316 123.389 128.65 123.389 128.983 123.29C129.312 123.196 129.619 122.968 129.903 122.606Z" fill="#1976D2"/>
<path d="M122.932 125.784C123.553 126.526 123.983 127.274 124.222 128.028C124.46 128.791 124.495 129.508 124.326 130.18C124.162 130.856 123.779 131.446 123.177 131.95C122.779 132.283 122.365 132.506 121.936 132.619C121.507 132.74 121.067 132.766 120.617 132.696L123.769 136.463L122.086 137.871L113.362 127.448L114.888 126.17L115.623 126.882C115.611 126.399 115.7 125.94 115.89 125.505C116.083 125.074 116.392 124.68 116.817 124.325C117.41 123.828 118.056 123.561 118.754 123.523C119.457 123.489 120.16 123.654 120.865 124.018C121.565 124.386 122.215 124.927 122.813 125.642L122.932 125.784ZM121.13 127.05C120.767 126.616 120.381 126.266 119.973 125.999C119.569 125.737 119.161 125.598 118.748 125.583C118.334 125.575 117.932 125.734 117.543 126.06C117.181 126.363 116.951 126.694 116.852 127.054C116.748 127.418 116.74 127.79 116.828 128.17L119.424 131.271C119.783 131.425 120.147 131.478 120.515 131.431C120.883 131.392 121.243 131.225 121.596 130.93C121.985 130.604 122.211 130.235 122.273 129.822C122.334 129.408 122.272 128.976 122.086 128.524C121.896 128.075 121.617 127.632 121.249 127.193L121.13 127.05Z" fill="#1976D2"/>
<path d="M108.433 137.839C108.651 138.355 108.668 138.848 108.482 139.317C108.296 139.786 107.924 140.14 107.364 140.376C106.794 140.618 106.275 140.642 105.809 140.449C105.343 140.255 105 139.9 104.782 139.384L104.647 139.066C104.429 138.55 104.414 138.06 104.602 137.596C104.784 137.135 105.161 136.783 105.731 136.542C106.291 136.305 106.805 136.279 107.275 136.465C107.739 136.653 108.08 137.005 108.298 137.521L108.433 137.839Z" fill="#1976D2"/>
<path d="M91.9774 135.718L94.3658 135.501L90.7034 148.772L88.6411 148.96L82.6267 136.569L85.0151 136.351L86.2955 139.194L91.2309 138.745L91.9774 135.718ZM90.7631 140.636L87.1056 140.969L89.4197 146.09L90.7631 140.636Z" fill="#1976D2"/>
<path d="M79.7249 132.22L81.9009 132.506L80.1754 145.649L78.1661 145.386L78.2063 144.4C77.8596 144.73 77.4626 144.966 77.0153 145.11C76.568 145.253 76.0695 145.289 75.5196 145.217C74.7182 145.112 74.0691 144.821 73.5723 144.345C73.0754 143.869 72.7342 143.25 72.5486 142.488C72.3572 141.725 72.3245 140.864 72.4504 139.905L72.4746 139.721C72.5959 138.796 72.8479 137.988 73.2305 137.294C73.6065 136.605 74.0971 136.087 74.7022 135.738C75.3015 135.388 75.996 135.265 76.7857 135.369C77.3238 135.439 77.7857 135.592 78.1714 135.827C78.5571 136.062 78.8772 136.366 79.1317 136.739L79.7249 132.22ZM74.6264 140.191C74.5519 140.758 74.5579 141.279 74.6442 141.755C74.7239 142.235 74.9041 142.631 75.1846 142.941C75.4585 143.257 75.847 143.448 76.3501 143.514C76.8122 143.575 77.208 143.528 77.5375 143.375C77.867 143.222 78.1385 142.99 78.3519 142.679L78.8944 138.546C78.7678 138.196 78.5688 137.9 78.2973 137.656C78.02 137.411 77.6415 137.257 77.1619 137.194C76.6588 137.128 76.2339 137.215 75.887 137.455C75.5401 137.695 75.2657 138.04 75.0639 138.49C74.8621 138.939 74.7243 139.445 74.6506 140.006L74.6264 140.191Z" fill="#1976D2"/>
<path d="M70.5163 130.248L72.5896 130.968L68.2429 143.491L66.3284 142.827L66.5669 141.87C66.1608 142.122 65.7242 142.274 65.2571 142.324C64.7901 142.374 64.2946 142.308 63.7707 142.127C63.0071 141.862 62.4301 141.446 62.0397 140.879C61.6492 140.313 61.4402 139.638 61.4125 138.854C61.3793 138.068 61.5213 137.218 61.8386 136.304L61.8995 136.128C62.2051 135.248 62.6154 134.507 63.1303 133.905C63.6377 133.306 64.223 132.898 64.8862 132.678C65.5438 132.457 66.2488 132.477 67.0013 132.738C67.514 132.916 67.9355 133.159 68.2657 133.467C68.5958 133.775 68.8479 134.137 69.0219 134.554L70.5163 130.248ZM63.9119 137.024C63.7243 137.564 63.6247 138.076 63.6131 138.559C63.5941 139.046 63.6905 139.47 63.9025 139.831C64.107 140.195 64.4489 140.46 64.9282 140.627C65.3685 140.78 65.7655 140.814 66.1191 140.731C66.4728 140.648 66.7856 140.475 67.0575 140.214L68.4242 136.276C68.3709 135.908 68.2359 135.577 68.0194 135.283C67.7973 134.987 67.4577 134.76 67.0007 134.602C66.5214 134.435 66.0876 134.435 65.6993 134.6C65.3111 134.765 64.9727 135.047 64.6842 135.446C64.3957 135.846 64.1585 136.313 63.9728 136.848L63.9119 137.024Z" fill="#1976D2"/>
<path d="M59.9314 129.563L61.8456 130.637L57.1624 138.988L55.3407 137.967L55.8278 136.972C55.4234 137.198 55.0081 137.324 54.5816 137.349C54.1501 137.37 53.7207 137.261 53.2936 137.022C53.1856 136.961 53.0704 136.883 52.9481 136.788C52.8259 136.692 52.7385 136.613 52.6861 136.549L53.7187 134.744C53.8284 134.826 53.9472 134.909 54.0752 134.995C54.1952 135.082 54.3195 135.162 54.4482 135.234C54.901 135.488 55.3206 135.609 55.7069 135.595C56.0931 135.582 56.4452 135.455 56.763 135.213L59.9314 129.563Z" fill="#1976D2"/>
<path d="M52.6744 130.843C52.0793 131.561 51.412 132.088 50.6725 132.425C49.9292 132.767 49.1677 132.89 48.3879 132.795C47.6036 132.697 46.8528 132.35 46.1353 131.755C45.4088 131.152 44.9246 130.474 44.6827 129.722C44.4408 128.969 44.4213 128.198 44.6242 127.408C44.8188 126.619 45.2137 125.866 45.8088 125.148L45.9275 125.005C46.5188 124.292 47.1861 123.765 47.9294 123.424C48.6644 123.083 49.424 122.962 50.2083 123.06C50.9881 123.155 51.7389 123.502 52.4609 124.101C53.1829 124.7 53.6649 125.376 53.9068 126.128C54.1487 126.881 54.1723 127.652 53.9777 128.441C53.7793 129.234 53.3845 129.988 52.7931 130.7L52.6744 130.843ZM51.1039 129.299C51.4655 128.863 51.738 128.415 51.9212 127.954C52.0962 127.493 52.1447 127.047 52.0666 126.614C51.9886 126.181 51.7453 125.796 51.3366 125.457C50.9325 125.121 50.5129 124.957 50.0778 124.964C49.6382 124.967 49.2105 125.1 48.7949 125.36C48.371 125.622 47.9782 125.971 47.6166 126.407L47.498 126.55C47.1439 126.976 46.8775 127.422 46.6988 127.887C46.5155 128.348 46.461 128.798 46.5353 129.235C46.6095 129.672 46.851 130.06 47.2597 130.399C47.6638 130.734 48.0876 130.898 48.5309 130.89C48.9698 130.879 49.4012 130.742 49.8251 130.481C50.2445 130.215 50.6312 129.869 50.9853 129.442L51.1039 129.299Z" fill="#1976D2"/>
<path d="M36.7008 121.471L35.2721 119.702L44.8014 116.262L46.0299 117.784L40.6755 126.394L39.2413 124.618L43.2646 118.754L36.7008 121.471Z" fill="#1976D2"/>
<path d="M40.1785 108.431C40.6209 109.271 40.8227 110.092 40.784 110.892C40.7401 111.695 40.4967 112.423 40.0537 113.076C39.6056 113.732 38.9978 114.262 38.2304 114.666L37.9093 114.835C37.027 115.3 36.1717 115.537 35.3432 115.546C34.5096 115.558 33.7601 115.369 33.0949 114.979C32.4269 114.584 31.8992 114.019 31.5117 113.282C31.083 112.468 30.9047 111.699 30.9766 110.974C31.0434 110.252 31.3199 109.593 31.8062 108.997C32.2874 108.404 32.9377 107.892 33.7574 107.46L34.5953 107.019L37.5053 112.548C38.12 112.158 38.5357 111.655 38.7525 111.041C38.964 110.43 38.8967 109.795 38.5505 109.137C38.3114 108.683 38.011 108.328 37.6494 108.072C37.2878 107.815 36.8713 107.645 36.3997 107.559L36.8819 106.006C37.4268 106.065 38.0038 106.275 38.613 106.634C39.217 106.997 39.7388 107.595 40.1785 108.431ZM33.0742 112.47C33.3462 112.987 33.7474 113.306 34.2777 113.427C34.808 113.547 35.4098 113.487 36.083 113.246L34.2034 109.676L34.0546 109.754C33.7312 109.937 33.4575 110.165 33.2336 110.436C33.0069 110.702 32.8708 111.007 32.8252 111.351C32.7768 111.69 32.8598 112.063 33.0742 112.47Z" fill="#1976D2"/>
<path d="M33.0172 104.809C32.0864 105.073 31.2281 105.161 30.4422 105.071C29.649 104.977 28.9801 104.716 28.4354 104.288C27.8851 103.862 27.5028 103.271 27.2886 102.516C27.1468 102.017 27.112 101.548 27.1841 101.111C27.2489 100.669 27.4048 100.257 27.6518 99.8743L22.927 101.215L22.3277 99.1041L35.4041 95.3927L35.9477 97.3082L34.9977 97.6882C35.4431 97.8746 35.8259 98.1431 36.1462 98.4937C36.4608 98.846 36.6939 99.2889 36.8453 99.8224C37.0563 100.566 37.0368 101.264 36.7869 101.918C36.5313 102.573 36.0935 103.148 35.4735 103.643C34.8519 104.132 34.0927 104.504 33.196 104.758L33.0172 104.809ZM32.5968 102.647C33.1416 102.493 33.6189 102.284 34.0286 102.02C34.4326 101.758 34.7261 101.442 34.9091 101.071C35.0848 100.696 35.1034 100.265 34.9649 99.7765C34.836 99.3225 34.6275 98.9769 34.3395 98.7398C34.0498 98.497 33.7133 98.3379 33.3301 98.2627L29.4396 99.3669C29.1531 99.6322 28.956 99.9427 28.8484 100.298C28.7335 100.65 28.7389 101.047 28.8646 101.49C29.0031 101.978 29.2484 102.334 29.6005 102.559C29.9527 102.784 30.373 102.904 30.8617 102.919C31.3487 102.928 31.8675 102.854 32.418 102.698L32.5968 102.647Z" fill="#1976D2"/>
<path d="M27.9292 86.653C27.3689 86.6418 26.9123 86.4557 26.5596 86.0946C26.2068 85.7336 26.0365 85.2492 26.0486 84.6417C26.0609 84.0224 26.2505 83.5393 26.6174 83.1926C26.9842 82.8458 27.4478 82.678 28.0082 82.6892L28.3532 82.6961C28.9136 82.7072 29.3672 82.8933 29.7141 83.2542C30.061 83.6093 30.2284 84.0965 30.216 84.7158C30.2039 85.3234 30.0173 85.8035 29.6563 86.1563C29.2953 86.5032 28.8347 86.671 28.2743 86.6599L27.9292 86.653Z" fill="#1976D2"/>
<path d="M36.5804 72.4954L35.8041 74.7644L25.1828 66.0051L25.8531 64.0458L39.6198 63.6116L38.8435 65.8807L35.7258 65.8896L34.1216 70.5785L36.5804 72.4954ZM32.5863 69.3798L33.7751 65.905L28.1555 65.9278L32.5863 69.3798Z" fill="#1976D2"/>
<path d="M44.774 62.7369L43.6252 64.6069L32.3298 57.6678L33.3906 55.9411L34.2739 56.3799C34.1147 55.929 34.0608 55.47 34.1122 55.0031C34.1637 54.5362 34.3345 54.0664 34.6248 53.5939C35.0479 52.9052 35.578 52.4312 36.2151 52.1717C36.8523 51.9123 37.5566 51.8534 38.3282 51.995C39.1028 52.1316 39.9024 52.4532 40.7268 52.9596L40.8851 53.0569C41.6794 53.5448 42.315 54.1049 42.792 54.7373C43.2671 55.3615 43.5405 56.021 43.6122 56.7159C43.6869 57.4057 43.5158 58.09 43.0989 58.7686C42.8148 59.2311 42.4868 59.5904 42.1148 59.8465C41.7428 60.1027 41.3348 60.2709 40.8907 60.3513L44.774 62.7369ZM39.578 54.8296C39.0904 54.5301 38.6119 54.3227 38.1426 54.2075C37.6714 54.0842 37.2368 54.0872 36.8388 54.2166C36.4388 54.3379 36.1061 54.6147 35.8405 55.047C35.5965 55.4441 35.4772 55.8243 35.4825 56.1876C35.4878 56.5509 35.589 56.8935 35.7859 57.2153L39.3374 59.3971C39.7085 59.4242 40.0607 59.3636 40.3942 59.2154C40.7307 59.062 41.0256 58.7793 41.2788 58.3671C41.5444 57.9348 41.6384 57.5113 41.5607 57.0966C41.4831 56.682 41.2803 56.2908 40.9523 55.9231C40.6242 55.5554 40.2189 55.2233 39.7363 54.9269L39.578 54.8296Z" fill="#1976D2"/>
<path d="M50.332 55.1345L48.8289 56.7337L39.1693 47.6547L40.5572 46.178L41.3336 46.7863C41.2688 46.3125 41.3088 45.8521 41.4536 45.4052C41.5983 44.9583 41.8606 44.5328 42.2404 44.1287C42.794 43.5398 43.409 43.1827 44.0854 43.0574C44.7618 42.9321 45.4635 43.0168 46.1905 43.3114C46.9216 43.6018 47.6396 44.0783 48.3446 44.741L48.48 44.8682C49.1593 45.5066 49.6686 46.1837 50.0079 46.8994C50.3471 47.6068 50.4815 48.3079 50.4112 49.003C50.3449 49.6937 50.0391 50.3292 49.4936 50.9095C49.1219 51.305 48.728 51.5906 48.3119 51.7663C47.8958 51.942 47.4622 52.0243 47.0111 52.0132L50.332 55.1345ZM46.8416 46.3401C46.4246 45.9482 45.9979 45.6484 45.5616 45.4407C45.125 45.2247 44.6987 45.1398 44.2828 45.1861C43.8666 45.224 43.4848 45.4278 43.1373 45.7976C42.8181 46.1372 42.6244 46.4854 42.5561 46.8423C42.4879 47.1992 42.5177 47.5551 42.6456 47.9101L45.6827 50.7647C46.0406 50.8663 46.3979 50.8782 46.7544 50.8003C47.1149 50.7182 47.4609 50.5009 47.7922 50.1484C48.1397 49.7787 48.3173 49.3829 48.3251 48.9612C48.3329 48.5394 48.2134 48.1153 47.9664 47.6889C47.7195 47.2625 47.3897 46.8553 46.977 46.4674L46.8416 46.3401Z" fill="#1976D2"/>
<path d="M55.2769 45.7506L53.5157 47.0601L47.8023 39.3764L49.4782 38.1302L50.188 38.9809C50.1462 38.5194 50.2011 38.0889 50.3526 37.6896C50.5088 37.2867 50.7834 36.9391 51.1763 36.6469C51.2758 36.573 51.3941 36.4998 51.5312 36.4272C51.6684 36.3546 51.7766 36.3072 51.8557 36.2851L53.0824 37.9645C52.963 38.0313 52.8382 38.1057 52.7081 38.1878C52.5791 38.2616 52.4555 38.3425 52.3371 38.4305C51.9205 38.7403 51.6395 39.0742 51.4941 39.4323C51.3486 39.7904 51.3211 40.1638 51.4116 40.5523L55.2769 45.7506Z" fill="#1976D2"/>
<path d="M57.0695 38.6031C56.6574 37.767 56.4484 36.9426 56.4424 36.1299C56.4339 35.312 56.6321 34.5664 57.0369 33.8933C57.4471 33.2175 58.0702 32.6736 58.9063 32.2615C59.753 31.8441 60.5692 31.6786 61.355 31.7648C62.1407 31.8511 62.8528 32.148 63.491 32.6556C64.132 33.1553 64.6585 33.8231 65.0706 34.6592L65.1528 34.8259C65.5623 35.6567 65.7713 36.4811 65.7799 37.2991C65.7911 38.1091 65.5916 38.8521 65.1815 39.5278C64.7766 40.201 64.1535 40.7449 63.3121 41.1596C62.4707 41.5744 61.6571 41.7386 60.8713 41.6523C60.0856 41.5661 59.3722 41.2731 58.7313 40.7734C58.0877 40.2685 57.5612 39.6006 57.1517 38.7698L57.0695 38.6031ZM59.1202 37.7995C59.3706 38.3075 59.6689 38.7392 60.0152 39.0948C60.3641 39.4424 60.752 39.6689 61.1788 39.7742C61.6057 39.8795 62.0572 39.8148 62.5335 39.58C63.0044 39.3479 63.3255 39.0318 63.4966 38.6317C63.673 38.229 63.727 37.7848 63.6585 37.2989C63.5928 36.8051 63.4347 36.3042 63.1843 35.7962L63.1021 35.6296C62.8569 35.1321 62.5585 34.707 62.207 34.3541C61.8607 33.9985 61.4729 33.7655 61.0434 33.6548C60.614 33.5442 60.1612 33.6063 59.6849 33.8411C59.2139 34.0732 58.8915 34.3933 58.7177 34.8012C58.5492 35.2066 58.4978 35.6562 58.5636 36.1499C58.6347 36.6411 58.7929 37.1354 59.038 37.6328L59.1202 37.7995Z" fill="#1976D2"/>
<path d="M72.1446 27.8447L74.3432 27.2626L73.5946 37.3659L71.7041 37.8665L66.028 29.4644L68.2351 28.8799L71.9469 34.946L72.1446 27.8447Z" fill="#1976D2"/>
<path d="M82.6308 36.3414C81.6829 36.4023 80.8515 36.2517 80.1366 35.8897C79.4213 35.5219 78.8558 35.0025 78.4403 34.3316C78.0244 33.6548 77.7886 32.8837 77.733 32.0182L77.7097 31.6561C77.6458 30.6611 77.7786 29.7836 78.1081 29.0234C78.4373 28.2574 78.9155 27.6503 79.543 27.202C80.1763 26.7534 80.908 26.5025 81.7381 26.4491C82.6566 26.3901 83.4319 26.5413 84.064 26.9027C84.6958 27.2582 85.1845 27.7796 85.5301 28.4668C85.8754 29.1481 86.0777 29.9509 86.1371 30.8753L86.1978 31.8202L79.9629 32.2208C80.0683 32.9412 80.3571 33.5256 80.8293 33.9741C81.3012 34.4168 81.908 34.6143 82.6498 34.5666C83.162 34.5337 83.6089 34.4045 83.9906 34.179C84.3722 33.9534 84.698 33.6428 84.9682 33.2471L86.19 34.3214C85.913 34.7944 85.4861 35.2357 84.9095 35.6452C84.3324 36.0488 83.5728 36.2808 82.6308 36.3414ZM81.8422 28.2071C81.2593 28.2446 80.8045 28.4807 80.4777 28.9155C80.151 29.3503 79.9602 29.9242 79.9055 30.6371L83.9326 30.3784L83.9218 30.2106C83.8862 29.8405 83.7903 29.4978 83.6341 29.1827C83.4838 28.8672 83.2609 28.6185 82.9654 28.4365C82.6758 28.2541 82.3014 28.1776 81.8422 28.2071Z" fill="#1976D2"/>
<path d="M88.8592 31.2813C88.9978 30.3237 89.2684 29.5045 89.6711 28.8236C90.0804 28.1377 90.5915 27.6335 91.2045 27.311C91.8184 26.9826 92.5136 26.8746 93.2902 26.987C93.804 27.0615 94.2459 27.2208 94.6159 27.4652C94.9925 27.7045 95.3052 28.015 95.554 28.3968L96.2578 23.536L98.4299 23.8506L96.4819 37.3031L94.5113 37.0177L94.552 35.9953C94.2001 36.3259 93.7988 36.5658 93.348 36.7151C92.898 36.8586 92.3986 36.8906 91.8497 36.8112C91.0848 36.7004 90.4551 36.3976 89.9604 35.9027C89.4666 35.402 89.1203 34.7677 88.9215 33.9997C88.7286 33.2326 88.6989 32.3877 88.8325 31.4652L88.8592 31.2813ZM91.0045 31.7797C90.9234 32.3402 90.9195 32.8613 90.9928 33.3428C91.067 33.8185 91.236 34.2156 91.4999 34.534C91.7704 34.8474 92.1568 35.0404 92.6589 35.1131C93.126 35.1808 93.5266 35.1315 93.8607 34.9653C94.2006 34.7999 94.483 34.5576 94.7081 34.2385L95.2876 30.236C95.1624 29.8662 94.9594 29.5596 94.6787 29.3163C94.4046 29.0679 94.0399 28.9108 93.5845 28.8449C93.0824 28.7721 92.6567 28.8506 92.3075 29.0802C91.9583 29.3098 91.6773 29.6447 91.4646 30.0848C91.2576 30.5258 91.1132 31.0294 91.0312 31.5958L91.0045 31.7797Z" fill="#1976D2"/>
<path d="M107.511 34.0456C107.75 33.5385 108.106 33.1977 108.58 33.023C109.054 32.8483 109.565 32.8904 110.115 33.1494C110.675 33.4134 111.039 33.7836 111.206 34.26C111.373 34.7364 111.337 35.2282 111.098 35.7352L110.951 36.0474C110.712 36.5544 110.357 36.8926 109.886 37.062C109.42 37.2339 108.907 37.1878 108.347 36.9238C107.797 36.6648 107.435 36.2985 107.26 35.8249C107.091 35.3539 107.125 34.8648 107.364 34.3578L107.511 34.0456Z" fill="#1976D2"/>
</svg>
