<svg width="291" height="56" viewBox="0 0 291 56" fill="none" xmlns="http://www.w3.org/2000/svg">
<g clip-path="url(#clip0_261_6)">
<path fill-rule="evenodd" clip-rule="evenodd" d="M25.3087 55.1431L34.9523 47.7313H39.683C44.1787 47.7313 47.8231 44.0939 47.8231 39.6069V8.12449C47.8231 3.63746 44.1787 0 39.683 0H8.14011C3.64446 0 0 3.63746 0 8.12449V39.6069C0 44.0939 3.64446 47.7313 8.14011 47.7313H22.3853V53.7073C22.3853 54.7081 23.1982 55.5195 24.2009 55.5195C24.6017 55.5195 24.9911 55.3871 25.3087 55.1431ZM6.10508 8.12449C6.10508 7.00273 7.01618 6.09336 8.14011 6.09336H39.683C40.8069 6.09336 41.7181 7.00273 41.7181 8.12449V39.6069C41.7181 40.7286 40.8069 41.638 39.683 41.638H8.14011C7.01618 41.638 6.10508 40.7286 6.10508 39.6069V8.12449Z" fill="#1976D2"/>
<path fill-rule="evenodd" clip-rule="evenodd" d="M19.0784 24.1196C19.0784 26.6435 21.1284 28.6896 23.6572 28.6896C26.186 28.6896 28.236 26.6435 28.236 24.1196C28.236 21.5957 26.186 19.5496 23.6572 19.5496C21.1284 19.5496 19.0784 21.5957 19.0784 24.1196ZM25.6922 24.1196C25.6922 25.2413 24.7811 26.1507 23.6572 26.1507C22.5333 26.1507 21.6221 25.2413 21.6221 24.1196C21.6221 22.9978 22.5333 22.0885 23.6572 22.0885C24.7811 22.0885 25.6922 22.9978 25.6922 24.1196Z" fill="#1976D2"/>
<path d="M25.1834 20.819C25.1834 21.5202 24.614 22.0885 23.9115 22.0885C23.2091 22.0885 22.6396 21.5202 22.6396 20.819V10.1557C22.6396 9.45463 23.2091 8.88623 23.9115 8.88623C24.614 8.88623 25.1834 9.45463 25.1834 10.1557V20.819Z" fill="#1976D2"/>
<path d="M27.4728 25.389C26.7704 25.389 26.201 24.8207 26.201 24.1195C26.201 23.4185 26.7704 22.8501 27.4728 22.8501H38.1567C38.8592 22.8501 39.4286 23.4185 39.4286 24.1195C39.4286 24.8207 38.8592 25.389 38.1567 25.389H27.4728Z" fill="#1976D2"/>
<path d="M15.3212 32.1976C14.7849 32.6505 13.9823 32.5838 13.5286 32.0485C13.0749 31.5134 13.1418 30.7124 13.678 30.2595L19.8921 25.0115C20.4283 24.5587 21.2308 24.6255 21.6845 25.1606C22.1383 25.6959 22.0714 26.4968 21.5352 26.9497L15.3212 32.1976Z" fill="#1976D2"/>
<path fill-rule="evenodd" clip-rule="evenodd" d="M68.7818 36.1173C67.6314 36.1173 67.0561 35.8032 67.0561 35.1749V16.9435H61.5209C61.217 16.9435 60.9945 16.8352 60.8534 16.6185C60.7123 16.4019 60.6418 16.0444 60.6418 15.5461V14.7011C60.6418 14.2029 60.7123 13.8454 60.8534 13.6287C60.9945 13.4121 61.217 13.3038 61.5209 13.3038H76.8569C77.1607 13.3038 77.3832 13.4121 77.5243 13.6287C77.6654 13.8454 77.736 14.2029 77.736 14.7011V15.5461C77.736 16.0444 77.6654 16.4019 77.5243 16.6185C77.3832 16.8352 77.1607 16.9435 76.8569 16.9435H71.3541V35.1749C71.3541 35.8032 70.7789 36.1173 69.6284 36.1173H68.7818ZM82.327 36.1499C81.1548 36.1499 80.5687 35.8249 80.5687 35.1749V14.1812C80.5687 13.5313 81.1548 13.2063 82.327 13.2063H83.141C84.2915 13.2063 84.8667 13.5313 84.8667 14.1812V35.1749C84.8667 35.8249 84.2915 36.1499 83.141 36.1499H82.327ZM100.561 30.3002C100.062 30.3002 99.6923 30.116 99.4534 29.7477L94.8299 21.5907C94.57 21.2224 94.3198 20.7783 94.0809 20.2584L93.9514 20.2908C93.9724 20.6591 93.9838 21.2116 93.9838 21.9482V35.1749C93.9838 35.8032 93.408 36.1173 92.2583 36.1173H91.5416C90.391 36.1173 89.8161 35.8032 89.8161 35.1749V14.1812C89.8161 13.5529 90.391 13.2388 91.5416 13.2388H93.072C94.0056 13.2388 94.6129 13.4987 94.8955 14.0187L100.561 23.9956C100.778 24.3639 100.951 24.7214 101.082 25.0681C101.168 24.7864 101.342 24.4181 101.602 23.9631L107.301 14.0187C107.583 13.4987 108.18 13.2388 109.092 13.2388H110.59C111.74 13.2388 112.315 13.5529 112.315 14.1812V35.1749C112.315 35.8032 111.74 36.1173 110.59 36.1173H109.873C108.722 36.1173 108.147 35.8032 108.147 35.1749V22.0133C108.147 21.2766 108.158 20.7241 108.18 20.3558L108.049 20.3234C107.811 20.8433 107.561 21.2874 107.301 21.6557L102.71 29.7477C102.471 30.116 102.102 30.3002 101.602 30.3002H100.561ZM118.697 36.0524C118.284 36.0524 117.981 35.9548 117.786 35.7599C117.59 35.5649 117.492 35.2616 117.492 34.85V14.5062C117.492 14.0729 117.59 13.7642 117.786 13.58C117.981 13.3958 118.284 13.3038 118.697 13.3038H130.093C130.397 13.3038 130.619 13.4121 130.761 13.6287C130.902 13.8454 130.973 14.2029 130.973 14.7011V15.5461C130.973 16.0444 130.902 16.4019 130.761 16.6185C130.619 16.8352 130.397 16.9435 130.093 16.9435H121.758V22.5982H129.182C129.485 22.5982 129.708 22.7065 129.849 22.9232C129.99 23.1398 130.061 23.4973 130.061 23.9956V24.8406C130.061 25.3389 129.99 25.6963 129.849 25.913C129.708 26.1296 129.485 26.2379 129.182 26.2379H121.758V32.4125H130.126C130.429 32.4125 130.652 32.5209 130.793 32.7375C130.934 32.9542 131.005 33.3117 131.005 33.81V34.6549C131.005 35.1532 130.934 35.5108 130.793 35.7274C130.652 35.9441 130.429 36.0524 130.126 36.0524H118.697Z" fill="#1976D2"/>
<path fill-rule="evenodd" clip-rule="evenodd" d="M143.464 31.0103C142.835 31.0103 142.521 30.8384 142.521 30.4948V19.1917C142.521 18.9547 142.574 18.7858 142.681 18.6851C142.788 18.5844 142.954 18.5341 143.18 18.5341H148.949C149.115 18.5341 149.236 18.5933 149.313 18.7118C149.39 18.8303 149.43 19.0258 149.43 19.2983V19.7604C149.43 20.0329 149.39 20.2284 149.313 20.3468C149.236 20.4654 149.115 20.5246 148.949 20.5246H144.853V23.617H148.753C148.919 23.617 149.04 23.6762 149.117 23.7947C149.195 23.9132 149.234 24.1086 149.234 24.3812V24.8433C149.234 25.1158 149.195 25.3112 149.117 25.4298C149.04 25.5483 148.919 25.6075 148.753 25.6075H144.853V30.4948C144.853 30.6726 144.779 30.8029 144.631 30.8859C144.483 30.9688 144.242 31.0103 143.91 31.0103H143.464ZM156.517 31.0991C154.7 31.0991 153.305 30.5541 152.332 29.4641C151.358 28.374 150.872 26.7982 150.872 24.7366C150.872 22.6868 151.358 21.12 152.332 20.0359C153.305 18.9517 154.7 18.4097 156.517 18.4097C158.333 18.4097 159.724 18.9488 160.692 20.0269C161.66 21.1052 162.144 22.675 162.144 24.7366C162.144 26.7982 161.66 28.374 160.692 29.4641C159.724 30.5541 158.333 31.0991 156.517 31.0991ZM156.517 29.1086C157.561 29.1086 158.359 28.7354 158.911 27.989C159.464 27.2425 159.739 26.1584 159.739 24.7366C159.739 23.3148 159.466 22.2367 158.92 21.5021C158.374 20.7674 157.573 20.4002 156.517 20.4002C155.46 20.4002 154.655 20.7674 154.103 21.5021C153.552 22.2367 153.275 23.3148 153.275 24.7366C153.275 26.1584 153.552 27.2425 154.103 27.989C154.655 28.7354 155.46 29.1086 156.517 29.1086ZM165.366 31.0103C164.737 31.0103 164.422 30.8384 164.422 30.4948V19.1917C164.422 18.9665 164.473 18.8007 164.573 18.694C164.675 18.5874 164.838 18.5341 165.063 18.5341H168.375C169.859 18.5341 170.96 18.8066 171.678 19.3516C172.397 19.8966 172.756 20.7142 172.756 21.8042C172.756 22.4914 172.572 23.0838 172.203 23.5814C171.836 24.0791 171.331 24.4522 170.691 24.7011V24.7721C170.951 24.867 171.201 25.0773 171.438 25.4031C171.676 25.729 171.889 26.1288 172.079 26.6027L173.593 30.3705C173.64 30.5363 173.664 30.637 173.664 30.6726C173.664 30.8977 173.344 31.0103 172.702 31.0103H172.169C171.646 31.0103 171.337 30.8977 171.243 30.6726L169.853 27.1892C169.64 26.7034 169.388 26.3658 169.096 26.1762C168.806 25.9866 168.364 25.8918 167.77 25.8918H166.755V30.4948C166.755 30.8384 166.441 31.0103 165.812 31.0103H165.366ZM168.678 23.8836C169.13 23.8836 169.521 23.7088 169.853 23.3593C170.186 23.0097 170.352 22.598 170.352 22.1241C170.352 21.6146 170.192 21.2207 169.872 20.9423C169.551 20.6638 169.111 20.5246 168.554 20.5246H166.755V23.8836H168.678Z" fill="#1976D2"/>
<path d="M141.18 15.995C140.618 15.995 140.163 15.5404 140.163 14.9795C140.163 14.4186 140.618 13.9639 141.18 13.9639H173.74C174.303 13.9639 174.758 14.4186 174.758 14.9795C174.758 15.5404 174.303 15.995 173.74 15.995H141.18Z" fill="#1976D2"/>
<path d="M141.18 35.2907C140.618 35.2907 140.163 34.8359 140.163 34.275C140.163 33.7142 140.618 33.2595 141.18 33.2595H173.74C174.303 33.2595 174.758 33.7142 174.758 34.275C174.758 34.8359 174.303 35.2907 173.74 35.2907H141.18Z" fill="#1976D2"/>
<path fill-rule="evenodd" clip-rule="evenodd" d="M184.089 36.1174C182.894 36.1174 182.297 35.9008 182.297 35.4675C182.297 35.4026 182.341 35.2184 182.428 34.915L189.787 13.8564C189.917 13.4447 190.47 13.2389 191.447 13.2389H192.88C193.835 13.2389 194.388 13.4447 194.54 13.8564L201.899 34.915C201.964 35.1317 201.996 35.3158 201.996 35.4675C201.996 35.9008 201.476 36.1174 200.434 36.1174H199.425C198.469 36.1174 197.915 35.9116 197.764 35.5L196.266 31.0478H187.931L186.433 35.5C186.28 35.9116 185.804 36.1174 185 36.1174H184.089ZM195.029 27.408L192.652 20.2585C192.478 19.7602 192.326 19.0885 192.196 18.2436H192.066C192.044 18.3736 191.99 18.6552 191.903 19.0885C191.816 19.5218 191.707 19.9118 191.578 20.2585L189.136 27.408H195.029ZM206.034 36.0525C205.621 36.0525 205.318 35.955 205.123 35.76C204.927 35.5651 204.83 35.2617 204.83 34.8501V14.5063C204.83 14.073 204.927 13.7643 205.123 13.5802C205.318 13.396 205.621 13.3039 206.034 13.3039H212.872C216.107 13.3039 218.629 14.2571 220.442 16.1638C222.254 18.0703 223.161 20.9085 223.161 24.6782C223.161 28.448 222.254 31.2861 220.442 33.1927C218.629 35.0992 216.107 36.0525 212.872 36.0525H206.034ZM212.775 32.4127C214.663 32.4127 216.134 31.7682 217.186 30.4791C218.239 29.19 218.766 27.2564 218.766 24.6782C218.766 22.1 218.239 20.1664 217.186 18.8773C216.134 17.5882 214.663 16.9437 212.775 16.9437H209.128V32.4127H212.775ZM234.036 36.1174C233.06 36.1174 232.516 35.9116 232.408 35.5L225.212 14.4413C225.147 14.2031 225.115 14.0189 225.115 13.8889C225.115 13.4556 225.701 13.2389 226.873 13.2389H227.687C228.642 13.2389 229.206 13.4989 229.38 14.0189L234.362 29.228L234.687 30.5603H234.818L235.175 29.228L240.222 14.0189C240.397 13.4989 240.961 13.2389 241.916 13.2389H242.665C243.837 13.2389 244.422 13.4556 244.422 13.8889C244.422 14.0189 244.39 14.2031 244.325 14.4413L237.129 35.5C237.021 35.9116 236.478 36.1174 235.501 36.1174H234.036ZM249.047 36.15C247.874 36.15 247.288 35.825 247.288 35.1751V14.1814C247.288 13.5314 247.874 13.2064 249.047 13.2064H249.861C251.011 13.2064 251.586 13.5314 251.586 14.1814V35.1751C251.586 35.825 251.011 36.15 249.861 36.15H249.047ZM266.304 36.2799C262.657 36.2799 259.97 35.3376 258.245 33.4526C256.519 31.5678 255.657 28.6322 255.657 24.6457C255.657 16.9328 259.248 13.0764 266.434 13.0764C267.497 13.0764 268.572 13.1902 269.657 13.4177C270.742 13.6452 271.589 13.9322 272.197 14.2788C272.739 14.5822 273.011 14.9072 273.011 15.2538C273.011 15.5138 272.908 15.855 272.702 16.2775C272.495 16.7 272.256 17.0737 271.985 17.3987C271.714 17.7236 271.47 17.8861 271.253 17.8861C271.188 17.8861 270.927 17.7778 270.471 17.5611C270.015 17.3445 269.446 17.1495 268.761 16.9762C268.078 16.8029 267.28 16.7162 266.368 16.7162C264.219 16.7162 262.629 17.3662 261.599 18.6661C260.567 19.966 260.052 21.97 260.052 24.6782C260.052 27.343 260.567 29.3362 261.599 30.6578C262.629 31.9794 264.198 32.6402 266.304 32.6402C267.302 32.6402 268.17 32.5319 268.908 32.3152C269.646 32.0986 270.352 31.8278 271.025 31.5028C271.372 31.3294 271.61 31.2428 271.741 31.2428C271.98 31.2428 272.224 31.3999 272.474 31.714C272.723 32.0281 272.935 32.3911 273.108 32.8027C273.283 33.2144 273.369 33.5068 273.369 33.6801C273.369 34.1784 273 34.6334 272.262 35.045C271.568 35.435 270.666 35.7383 269.559 35.955C268.453 36.1716 267.368 36.2799 266.304 36.2799ZM278.123 36.0525C277.71 36.0525 277.406 35.955 277.211 35.76C277.016 35.5651 276.918 35.2617 276.918 34.8501V14.5063C276.918 14.073 277.016 13.7643 277.211 13.5802C277.406 13.396 277.71 13.3039 278.123 13.3039H289.519C289.823 13.3039 290.046 13.4122 290.187 13.6289C290.328 13.8455 290.398 14.2031 290.398 14.7013V15.5463C290.398 16.0446 290.328 16.402 290.187 16.6187C290.046 16.8353 289.823 16.9437 289.519 16.9437H281.184V22.5983H288.607C288.911 22.5983 289.134 22.7067 289.275 22.9233C289.416 23.14 289.487 23.4974 289.487 23.9957V24.8407C289.487 25.339 289.416 25.6965 289.275 25.9131C289.134 26.1298 288.911 26.2381 288.607 26.2381H281.184V32.4127H289.551C289.856 32.4127 290.078 32.521 290.219 32.7377C290.36 32.9543 290.431 33.3118 290.431 33.8102V34.6551C290.431 35.1534 290.36 35.5109 290.219 35.7275C290.078 35.9442 289.856 36.0525 289.551 36.0525H278.123Z" fill="#1976D2"/>
</g>
<defs>
<clipPath id="clip0_261_6">
<rect width="290.5" height="56" fill="white"/>
</clipPath>
</defs>
</svg>
